<?xml version="1.0" standalone="no"?>
<!DOCTYPE svg PUBLIC "-//W3C//DTD SVG 20010904//EN"
 "http://www.w3.org/TR/2001/REC-SVG-20010904/DTD/svg10.dtd">
<svg version="1.0" xmlns="http://www.w3.org/2000/svg"
 width="1299.000000pt" height="1299.000000pt" viewBox="0 0 1299.000000 1299.000000"
 preserveAspectRatio="xMidYMid meet">

<g transform="translate(0.000000,1299.000000) scale(0.100000,-0.100000)"
fill="#000000" stroke="none">
<path d="M1340 12716 c-96 -63 -390 -252 -505 -325 -254 -161 -402 -254 -525
-333 -317 -204 -310 -199 -310 -227 0 -17 48 -92 144 -226 78 -110 245 -344
370 -520 125 -176 231 -321 235 -323 5 -1 66 34 137 79 71 45 176 112 234 149
58 37 153 98 212 136 59 38 178 114 265 169 312 199 428 274 440 284 17 15 19
11 -152 311 -82 145 -224 394 -315 554 -91 160 -172 292 -180 293 -8 1 -31 -8
-50 -21z"/>
<path d="M3949 12046 c-2 -2 -44 -9 -93 -15 -49 -6 -91 -13 -94 -16 -3 -3 -13
-56 -22 -118 l-16 -112 -28 3 c-15 2 -57 -1 -94 -7 -37 -6 -109 -16 -159 -22
-51 -7 -93 -15 -94 -18 -4 -42 -9 -120 -14 -230 l-6 -133 78 7 c43 3 96 11
118 16 22 4 56 9 75 9 20 0 41 5 48 12 21 21 22 3 7 -98 -9 -54 -23 -148 -31
-209 -8 -60 -19 -135 -24 -165 -11 -67 -27 -170 -35 -228 -3 -25 -2 -41 4 -38
9 6 37 75 191 481 51 132 98 254 105 270 7 17 16 37 18 45 4 9 6 7 6 -7 1 -26
5 -27 104 -13 40 6 108 15 152 21 44 6 88 13 98 16 14 4 17 0 13 -19 -5 -23
-21 -320 -31 -603 -7 -177 -5 -176 65 28 27 78 74 214 105 302 87 246 97 278
102 310 12 84 25 367 17 375 -5 5 -37 5 -74 0 -104 -13 -227 -29 -339 -44 -63
-9 -107 -19 -112 -27 -16 -25 -10 21 15 121 13 52 22 98 19 103 -4 7 -66 10
-74 3z m18 -313 c-3 -10 -5 -4 -5 12 0 17 2 24 5 18 2 -7 2 -21 0 -30z m-260
-70 c-2 -16 -4 -3 -4 27 0 30 2 43 4 28 2 -16 2 -40 0 -55z m240 -5 c-3 -7 -5
-2 -5 12 0 14 2 19 5 13 2 -7 2 -19 0 -25z m-260 -120 c-3 -7 -5 -2 -5 12 0
14 2 19 5 13 2 -7 2 -19 0 -25z m223 -18 c0 -11 -4 -20 -9 -20 -5 0 -7 9 -4
20 3 11 7 20 9 20 2 0 4 -9 4 -20z m560 0 c0 -5 -17 -10 -37 -9 -34 1 -35 2
-13 9 36 11 50 11 50 0z m-117 -17 c-7 -2 -21 -2 -30 0 -10 3 -4 5 12 5 17 0
24 -2 18 -5z"/>
<path d="M2524 11722 c-32 -22 -133 -86 -224 -144 -91 -58 -280 -179 -420
-268 -271 -174 -541 -346 -822 -524 -95 -61 -218 -139 -273 -175 -56 -37 -110
-71 -120 -78 -178 -109 -295 -189 -295 -202 0 -9 12 -30 28 -46 15 -17 64 -77
110 -133 l83 -103 -20 -32 c-10 -18 -28 -48 -39 -68 -41 -74 -47 -84 -61 -101
-19 -24 -4 -40 80 -84 38 -20 69 -40 69 -44 0 -4 -20 -54 -45 -110 -115 -258
-205 -604 -224 -860 l-6 -85 -95 -5 -95 -5 -3 -187 -2 -188 89 0 c107 0 105 1
114 -115 4 -44 16 -132 28 -195 11 -63 23 -130 26 -147 l5 -33 -206 0 -206 0
0 -190 0 -190 2911 -2 c1600 -2 2914 1 2918 5 5 5 2 38 -5 75 -7 37 -31 164
-53 282 -23 118 -45 237 -51 263 -5 27 -10 68 -10 93 0 55 12 63 150 99 58 15
120 33 139 41 19 8 68 14 117 14 46 0 84 3 84 8 4 90 1 352 -4 361 -5 7 -39
11 -92 11 -82 0 -85 1 -95 27 -5 15 -13 22 -18 17 -4 -5 -29 -75 -55 -157 -51
-159 -69 -186 -121 -173 -46 12 -56 42 -45 136 11 92 25 229 40 380 5 52 18
187 30 299 26 243 24 256 -43 246 -202 -29 -244 -41 -250 -68 -2 -12 -17 -62
-32 -112 -14 -49 -42 -144 -61 -210 -19 -65 -42 -127 -51 -137 -21 -24 -68
-23 -93 2 -19 19 -20 33 -20 474 0 419 1 455 18 476 20 25 63 35 320 76 94 15
172 32 172 37 0 18 -92 167 -102 167 -6 0 -44 -19 -85 -41 l-75 -42 -29 31
-28 30 -243 -115 c-438 -207 -406 -195 -446 -167 -15 10 -22 25 -22 48 0 37
14 51 139 147 47 35 108 82 136 104 28 22 94 72 147 112 52 40 100 78 106 85
8 10 -4 30 -51 81 l-62 68 -220 74 c-221 74 -265 96 -265 134 0 12 34 86 75
165 56 109 71 147 62 154 -7 6 -39 26 -72 45 -33 18 -99 56 -147 84 -47 28
-90 48 -95 44 -6 -3 -22 -28 -38 -56 -16 -27 -39 -65 -52 -83 -24 -33 -53
-104 -123 -310 -21 -63 -46 -123 -56 -133 -22 -25 -69 -24 -94 1 -20 20 -21
27 -13 228 12 317 13 304 -19 320 -68 32 -268 84 -268 69 0 -23 -274 -705
-286 -714 -24 -18 -55 -16 -83 3 -22 16 -23 21 -17 93 3 42 10 101 15 131 6
30 19 118 30 195 12 77 26 174 33 215 6 41 12 91 12 110 1 34 0 35 -44 42 -25
3 -86 7 -136 7 -118 1 -127 10 -128 119 l-1 77 -135 0 -135 0 -5 -95 -5 -95
-40 -3 c-115 -7 -340 -46 -455 -77 -104 -28 -94 -17 85 97 72 46 143 92 159
103 l28 21 -76 157 c-41 86 -79 157 -84 157 -4 0 -35 -17 -68 -38z m-193 -682
c6 0 8 -63 7 -157 l-3 -158 -163 -3 -163 -2 3 -152 3 -152 35 -8 c19 -4 92
-10 163 -14 l127 -7 0 -104 c0 -58 4 -103 10 -103 5 0 45 16 90 35 82 37 225
82 340 109 91 20 263 41 283 33 16 -6 17 -67 17 -804 0 -439 -4 -803 -8 -809
-4 -5 -23 -20 -42 -31 -86 -53 -140 -149 -140 -251 l0 -49 -102 -60 c-57 -33
-175 -102 -263 -154 l-160 -94 -125 4 -125 3 -30 -34 c-16 -19 -39 -39 -50
-45 -18 -10 -21 -25 -25 -125 l-5 -113 -298 -3 -298 -2 -15 35 c-8 20 -21 59
-28 88 l-13 52 -111 3 -111 3 5 -72 c7 -113 10 -110 -109 -107 l-102 3 -3 88
-3 87 75 0 c41 0 76 3 78 8 2 4 2 53 0 109 l-4 102 -71 3 -72 3 -3 108 c-2 81
0 107 10 108 7 1 40 2 73 3 l60 1 3 107 3 107 -73 3 -73 3 0 105 0 105 73 3
72 3 0 156 0 157 -32 33 -31 32 17 73 c29 122 36 227 36 610 0 228 4 369 10
373 5 3 41 -8 79 -25 104 -45 101 -48 101 76 l0 107 83 -9 c45 -4 118 -8 162
-9 l81 0 78 -64 c71 -58 136 -89 158 -75 4 3 8 27 8 55 l0 49 -59 0 c-38 0
-63 5 -70 14 -8 9 -11 61 -9 162 l3 149 163 3 162 2 0 124 0 124 53 34 c46 29
62 34 142 39 50 3 96 4 103 2 8 -2 18 -3 23 -3z m1114 -695 c204 -30 372 -82
560 -175 561 -276 938 -786 1041 -1410 20 -120 23 -431 5 -555 -12 -85 -42
-221 -60 -275 -5 -14 -15 -45 -22 -70 -7 -25 -17 -51 -22 -57 -7 -10 -55 -13
-177 -13 l-168 0 -89 51 c-48 29 -131 77 -183 107 -97 56 -221 128 -625 361
-126 73 -233 138 -236 143 -4 6 -10 34 -13 62 -12 84 -74 168 -156 211 l-30
16 0 803 c0 441 3 806 7 809 10 10 58 8 168 -8z m-2435 -30 c0 -2 -33 -47 -74
-99 -41 -53 -83 -109 -92 -126 -10 -16 -24 -30 -30 -30 -21 0 -115 63 -107 71
14 14 288 189 296 189 4 0 7 -2 7 -5z m2574 -2160 c98 -58 180 -105 182 -105
2 0 36 -20 76 -44 80 -48 118 -70 256 -147 50 -29 92 -56 92 -61 0 -4 -416 -8
-925 -8 l-925 0 0 38 0 38 178 104 c97 57 215 127 262 154 222 132 197 124
265 91 101 -50 208 -42 295 20 19 13 42 24 50 24 8 1 96 -46 194 -104z"/>
<path d="M1317 10354 c-4 -4 -7 -58 -7 -121 0 -132 3 -130 -106 -87 -37 15
-69 23 -74 18 -4 -5 -10 -171 -13 -369 -4 -269 -9 -380 -21 -440 -20 -105 -20
-111 0 -94 9 7 29 33 46 57 17 25 35 41 43 38 12 -4 69 14 187 60 54 21 64 17
47 -20 -11 -23 -18 -26 -64 -26 -64 0 -74 -8 -33 -29 34 -17 44 -31 53 -75 6
-27 8 -28 48 -22 89 15 121 61 121 179 1 76 1 78 18 57 10 -12 20 -37 24 -56
4 -21 16 -41 30 -51 22 -14 26 -14 49 1 62 41 51 120 -23 167 -25 16 -53 29
-61 29 -9 0 -22 4 -30 9 -11 7 2 17 47 40 76 38 92 34 92 -28 0 -65 9 -75 56
-66 77 14 74 2 74 341 0 278 1 304 17 313 28 15 11 22 -71 28 l-76 6 0 -52 c0
-28 -4 -51 -8 -51 -4 0 -23 16 -42 35 -19 19 -39 35 -45 35 -7 0 -24 -14 -39
-31 -23 -25 -33 -30 -64 -27 -36 3 -37 4 -40 46 -4 48 -14 43 118 48 41 2 78
3 83 3 4 1 7 7 7 14 0 13 -92 87 -108 87 -5 0 -21 -18 -36 -41 -17 -25 -33
-39 -44 -37 -22 4 -28 51 -8 68 26 20 19 27 -35 34 -29 4 -64 9 -78 12 -14 3
-29 2 -34 -2z m-12 -304 c0 -42 -2 -45 -27 -48 -27 -3 -28 -1 -28 41 0 50 6
59 35 55 17 -3 20 -10 20 -48z m231 35 c4 -8 4 -22 0 -30 -4 -13 -11 -12 -40
6 l-35 20 -17 -33 c-17 -32 -17 -32 -27 -10 -16 35 15 62 70 62 30 0 45 -5 49
-15z m154 -221 c0 -128 -3 -184 -11 -184 -6 0 -31 14 -56 30 -24 17 -48 30
-54 30 -5 0 -20 -25 -34 -55 -13 -30 -28 -55 -33 -55 -8 0 -72 65 -72 73 0 3
21 21 47 41 42 33 52 36 109 36 76 0 89 14 45 49 -33 27 -39 41 -19 41 18 0
48 31 48 51 0 11 -9 24 -20 31 -11 7 -20 18 -20 25 0 19 -14 16 -35 -7 -15
-16 -31 -20 -90 -20 -74 0 -98 13 -72 39 14 14 99 15 113 1 7 -7 31 3 75 29
35 21 67 37 72 34 4 -2 7 -87 7 -189z m-380 77 c0 -16 9 -39 19 -52 17 -21 29
-24 110 -27 50 -2 91 -7 91 -11 0 -4 -9 -17 -21 -29 -19 -21 -28 -22 -137 -20
l-117 3 -3 82 c-3 78 -2 82 20 85 32 6 38 1 38 -31z m26 -172 c7 -12 -63 -89
-82 -89 -12 0 -11 48 2 88 4 15 70 16 80 1z m14 -112 c0 -14 -99 -117 -112
-117 -13 0 -9 55 6 75 10 14 75 48 104 54 1 1 2 -5 2 -12z m30 -116 c0 -22
-183 -172 -195 -159 -3 2 4 29 14 59 19 53 21 55 82 76 34 13 65 25 67 28 9 8
32 6 32 -4z"/>
<path d="M1878 9884 l-3 -459 -67 -3 c-75 -3 -86 -16 -34 -37 43 -18 66 -50
66 -92 0 -49 29 -58 96 -28 82 38 84 51 84 577 0 445 0 447 21 459 35 18 8 30
-80 36 l-81 6 -2 -459z"/>
<path d="M2127 10064 c-4 -4 -7 -79 -7 -166 l0 -159 108 3 107 3 0 160 0 160
-101 3 c-55 1 -103 0 -107 -4z"/>
<path d="M2120 9397 c0 -42 -35 -123 -71 -162 -21 -23 -39 -46 -39 -51 0 -10
70 -72 104 -91 24 -14 194 -17 214 -5 9 7 12 46 10 163 l-3 154 -107 3 c-86 2
-108 0 -108 -11z"/>
<path d="M1210 9250 c-12 -17 -20 -35 -18 -41 6 -19 160 -81 185 -74 30 7 30
25 -1 25 -47 0 -56 10 -56 56 0 39 -3 46 -26 54 -42 16 -62 12 -84 -20z"/>
<path d="M1870 9100 l-32 -40 -273 0 -273 0 -67 30 c-37 17 -73 30 -81 30 -12
0 -14 -77 -12 -522 l3 -523 42 2 c53 2 91 27 101 67 l8 31 285 0 284 0 0 -45
c0 -43 1 -45 31 -48 18 -2 49 5 70 15 l39 18 3 435 c2 429 2 434 24 457 12 13
20 24 17 26 -2 1 -32 26 -66 55 -34 28 -64 52 -66 52 -3 0 -20 -18 -37 -40z
m-19 -67 c0 -5 2 -54 4 -110 4 -85 2 -103 -10 -103 -8 0 -22 11 -31 25 -9 14
-24 25 -34 25 -11 0 -20 -10 -24 -25 -4 -14 -12 -25 -19 -25 -19 0 -9 131 11
146 22 16 5 23 -77 30 l-71 7 0 -91 c0 -50 -3 -97 -6 -106 -5 -14 -28 -16
-144 -16 -82 0 -141 -4 -145 -10 -4 -6 43 -10 133 -10 100 0 142 -4 150 -12
10 -13 14 -321 5 -345 -4 -9 -30 -13 -84 -13 -86 0 -102 -12 -39 -31 49 -15
67 -34 78 -85 8 -37 10 -39 42 -36 43 3 87 29 114 65 19 26 21 45 26 240 l5
212 59 0 60 0 -1 -272 c-1 -150 -4 -277 -8 -283 -7 -11 -521 -15 -549 -4 -14
5 -16 51 -16 413 0 224 3 411 7 414 9 10 563 9 564 0z"/>
<path d="M1350 8713 c0 -5 7 -26 15 -48 8 -22 14 -64 15 -92 0 -39 5 -58 20
-73 48 -48 125 -4 125 70 0 31 -8 47 -34 74 -44 46 -141 93 -141 69z"/>
<path d="M2112 8748 c-8 -8 -12 -58 -12 -160 l0 -148 120 0 120 0 0 148 c0
102 -4 152 -12 160 -8 8 -47 12 -108 12 -61 0 -100 -4 -108 -12z"/>
<path d="M4070 9898 c-85 -62 -234 -169 -330 -238 -96 -70 -185 -133 -197
-141 -13 -8 -23 -19 -23 -25 0 -7 65 -74 145 -150 80 -75 145 -141 145 -146 0
-5 -48 -78 -107 -161 -184 -262 -215 -308 -210 -314 3 -3 27 10 53 29 26 18
76 53 110 78 35 25 137 96 226 159 315 222 329 232 321 245 -5 7 -72 73 -150
145 -79 73 -143 137 -143 143 0 11 6 20 183 269 130 183 153 219 140 219 -4
-1 -78 -51 -163 -112z"/>
<path d="M4365 9063 c-115 -2 -213 -7 -217 -11 -3 -4 6 -61 22 -127 16 -66 29
-127 30 -136 0 -11 -24 -25 -72 -43 -40 -15 -82 -32 -93 -36 -11 -5 -55 -21
-98 -36 -43 -15 -80 -31 -84 -37 -6 -10 563 -5 573 6 4 3 -4 50 -17 104 -12
54 -23 115 -23 136 -1 44 -11 38 209 120 65 25 121 50 123 56 2 7 -20 10 -70
9 -40 -2 -167 -4 -283 -5z"/>
<path d="M5200 11160 c-21 -43 -30 -73 -24 -79 16 -15 684 -233 697 -228 18 8
81 137 71 146 -14 12 -667 231 -690 231 -15 0 -29 -18 -54 -70z"/>
<path d="M4921 10968 c-48 -84 -134 -258 -130 -262 12 -12 761 -256 769 -251
5 3 18 1 27 -4 16 -9 15 -10 -7 -11 -15 0 -50 -20 -85 -48 -33 -27 -116 -91
-185 -143 -297 -226 -370 -284 -361 -287 5 -2 80 31 166 72 86 42 159 76 161
76 9 0 489 241 498 250 6 6 -2 14 -19 20 -15 6 -25 13 -22 16 3 3 22 0 42 -7
43 -16 30 -31 126 153 46 89 63 130 55 136 -6 5 -135 50 -286 101 -340 113
-679 227 -702 236 -13 5 -24 -6 -47 -47z m734 -538 c8 -13 -15 -13 -35 0 -12
8 -11 10 7 10 12 0 25 -4 28 -10z m60 -20 c8 -13 -15 -13 -35 0 -12 8 -11 10
7 10 12 0 25 -4 28 -10z"/>
<path d="M6120 9948 c-63 -11 -119 -23 -124 -28 -5 -5 -12 -26 -16 -47 l-8
-38 -1 37 c0 20 -4 39 -8 41 -16 9 -326 -50 -337 -64 -6 -8 -22 -13 -35 -11
-35 5 -215 -29 -223 -42 -11 -16 -9 -708 1 -725 7 -11 12 -3 21 27 6 24 24 86
41 139 16 54 37 124 45 158 18 70 28 85 52 78 10 -2 103 10 207 27 105 18 195
33 200 33 6 1 9 -9 8 -23 -4 -49 -33 -346 -43 -430 -5 -47 -14 -139 -20 -205
-6 -66 -16 -150 -21 -187 -19 -138 -4 -159 30 -45 13 39 49 153 82 252 205
629 188 573 219 738 11 59 29 155 41 213 11 59 16 110 12 114 -4 4 -60 -2
-123 -12z m-153 -220 c-2 -13 -4 -3 -4 22 0 25 2 35 4 23 2 -13 2 -33 0 -45z
m-390 -30 c-3 -7 -5 -2 -5 12 0 14 2 19 5 13 2 -7 2 -19 0 -25z m-20 -75 c-3
-10 -5 -2 -5 17 0 19 2 27 5 18 2 -10 2 -26 0 -35z m-20 -65 c-3 -7 -5 -2 -5
12 0 14 2 19 5 13 2 -7 2 -19 0 -25z"/>
<path d="M6380 8327 c-25 -12 -25 -14 -32 -177 -3 -91 -11 -286 -18 -435 -6
-148 -13 -326 -16 -395 -2 -69 -9 -219 -15 -334 -5 -115 -6 -213 -1 -218 4 -4
14 9 21 30 7 20 30 85 52 143 l39 105 -2 647 -3 646 -25 -12z"/>
<path d="M5935 8179 c-109 -29 -149 -42 -158 -49 -5 -4 -1 -43 8 -86 9 -44 23
-117 31 -164 8 -47 28 -155 44 -240 17 -85 35 -183 42 -217 6 -35 15 -63 19
-63 4 0 35 57 68 126 l61 126 0 278 c0 153 -3 285 -6 294 -7 20 -20 19 -109
-5z"/>
<path d="M6120 7699 c0 -89 -1 -95 -46 -186 -26 -52 -44 -97 -41 -100 4 -3 53
-5 109 -5 l103 1 6 44 c4 25 9 109 10 188 l4 144 -72 3 -73 3 0 -92z"/>
<path d="M10915 5477 c-131 -69 -208 -117 -438 -271 -120 -80 -220 -146 -223
-146 -10 0 -143 87 -199 130 -78 61 -143 102 -148 92 -14 -24 -15 -66 -3 -113
8 -30 13 -55 12 -56 -4 -4 -246 57 -309 77 -31 11 -80 32 -107 47 -44 24 -52
26 -61 13 -10 -16 -7 -62 6 -92 6 -15 2 -18 -27 -18 -47 0 -198 34 -285 64
-39 13 -74 22 -77 18 -12 -11 -6 -48 14 -85 11 -20 20 -40 20 -45 0 -12 -99
-32 -158 -32 -58 0 -74 8 -212 108 -44 31 -103 72 -132 91 -107 70 -425 241
-448 241 -5 0 -16 -24 -25 -52 -18 -60 -22 -342 -5 -425 58 -299 180 -482 367
-551 42 -16 43 -17 43 -62 0 -25 -7 -98 -14 -162 -17 -138 -42 -195 -118 -259
-35 -29 -48 -47 -46 -62 4 -29 67 -63 145 -77 57 -11 63 -15 63 -36 0 -27 -22
-66 -57 -103 -41 -43 -28 -62 55 -80 29 -6 67 -11 83 -11 17 0 45 -11 63 -25
47 -36 150 -85 221 -105 70 -20 73 -27 56 -135 -27 -161 -52 -244 -116 -385
-29 -63 -63 -156 -75 -207 -20 -81 -22 -99 -11 -150 14 -70 60 -171 103 -225
18 -23 66 -68 108 -101 41 -32 77 -61 79 -63 2 -2 -6 -11 -18 -21 -57 -48 -21
-135 61 -147 24 -3 85 -6 136 -8 l93 -2 4 74 c5 80 0 90 -46 90 -44 0 -182 40
-233 68 -81 44 -172 142 -214 230 -35 72 -37 83 -36 167 2 96 24 171 107 360
44 100 73 199 96 323 l17 97 108 -4 c59 -1 123 0 142 3 60 12 36 26 -43 26
-100 0 -254 23 -335 50 -59 20 -196 88 -227 113 -7 6 -42 14 -77 18 -36 4 -67
9 -70 11 -2 3 11 28 29 55 35 51 55 129 39 145 -5 5 -44 12 -86 15 -51 4 -85
12 -99 23 l-21 17 51 59 c28 33 58 73 67 91 10 20 23 102 35 220 27 251 52
365 98 443 21 36 8 53 -17 23 -10 -13 -20 -23 -23 -23 -9 0 -95 135 -127 200
-18 36 -51 92 -73 125 -22 33 -67 105 -100 160 -33 55 -78 126 -100 158 -42
63 -42 81 1 56 394 -234 592 -361 592 -380 0 -4 -27 -10 -60 -14 -68 -8 -73
-18 -38 -68 27 -41 47 -57 70 -57 15 0 13 5 -12 31 -16 18 -30 37 -30 44 0 8
50 16 160 24 143 12 252 30 267 45 3 3 -6 19 -21 36 -24 29 -43 76 -34 85 2 2
17 -2 33 -10 70 -32 197 -66 288 -77 53 -6 100 -9 102 -6 3 2 -7 28 -22 56
-15 29 -24 55 -20 58 3 4 21 0 39 -9 91 -43 146 -62 286 -98 84 -21 172 -39
195 -39 l42 0 -36 30 c-36 29 -61 71 -74 123 -11 41 8 34 83 -30 65 -54 209
-153 257 -175 18 -8 27 -7 42 8 57 55 122 100 323 224 74 46 184 117 243 158
60 40 111 72 113 70 2 -3 -59 -110 -136 -239 -77 -128 -140 -237 -140 -241 0
-16 -101 -188 -110 -188 -6 0 -21 22 -34 48 -24 48 -52 79 -62 70 -2 -3 13
-39 35 -79 57 -105 110 -296 122 -439 24 -277 23 -276 63 -324 53 -65 49 -77
-25 -75 -43 2 -64 -2 -70 -12 -21 -30 3 -120 51 -196 8 -12 12 -25 9 -28 -4
-3 -35 -9 -71 -13 -47 -6 -71 -14 -89 -31 -95 -91 -346 -207 -492 -227 -26 -4
-50 -11 -53 -15 -12 -19 105 -8 183 18 46 14 85 24 88 21 3 -3 21 -69 40 -147
35 -148 115 -401 145 -461 47 -94 65 -173 65 -285 0 -100 -3 -116 -28 -171
-33 -71 -106 -147 -190 -197 -58 -35 -112 -49 -250 -63 -81 -8 -87 -16 -78
-99 l6 -60 99 2 c127 2 142 7 162 45 12 24 14 36 5 55 -15 34 -14 41 11 49 71
22 208 142 255 222 34 58 50 147 42 242 -3 41 -1 80 3 86 5 6 30 19 56 29 173
65 302 149 380 250 35 45 117 218 151 320 46 138 62 289 61 575 -1 135 -4 261
-9 280 l-7 35 -19 -35 c-34 -67 -182 -285 -225 -333 -78 -88 -226 -163 -360
-183 l-45 -6 22 22 c15 17 40 26 85 32 37 5 70 16 81 26 17 17 16 21 -23 96
-54 104 -51 120 18 122 55 2 112 20 112 36 0 5 -18 32 -39 61 -51 67 -68 133
-76 289 l-7 128 32 17 c104 58 174 131 231 243 35 70 43 93 69 215 31 150 44
291 31 359 -6 33 -11 75 -11 94 0 53 -21 112 -39 112 -9 0 -52 -20 -96 -43z
m-99 -602 c20 -30 14 -85 -17 -154 l-19 -44 20 -19 c23 -21 20 -49 -9 -82 -16
-18 -90 -60 -96 -54 -2 2 -21 56 -43 120 l-39 118 29 50 c47 82 140 117 174
65z m-2370 -4 c50 -23 149 -145 138 -170 -11 -26 -44 -154 -44 -170 0 -9 -4
-23 -9 -31 -8 -12 -18 -10 -63 10 -63 29 -85 46 -104 81 -12 24 -11 30 6 51
19 25 19 25 -2 68 -29 58 -36 141 -13 163 21 22 40 21 91 -2z m2501 -1161 c6
-61 14 -99 21 -104 4 -3 38 11 75 30 37 19 70 34 75 34 5 0 14 -22 21 -48 10
-40 9 -65 -2 -138 -17 -101 -92 -311 -143 -395 -36 -60 -112 -137 -184 -186
-58 -39 -207 -111 -248 -119 -32 -6 -32 -6 -73 82 -56 123 -113 290 -154 458
-46 186 -46 200 3 224 64 33 253 100 357 128 55 14 127 37 160 49 77 30 88 28
92 -15z"/>
<path d="M10052 4345 c-29 -37 -44 -130 -33 -207 15 -108 47 -145 94 -108 37
29 52 130 37 239 -9 60 -17 84 -31 91 -28 16 -46 12 -67 -15z"/>
<path d="M9053 4333 c-26 -40 -32 -217 -8 -267 31 -65 93 -55 113 18 14 49 -1
219 -21 250 -23 35 -61 35 -84 -1z"/>
<path d="M9513 4073 c-26 -17 -30 -55 -10 -72 40 -33 130 -19 143 22 5 15 -1
27 -20 44 -32 27 -80 30 -113 6z"/>
<path d="M10137 2934 c-26 -52 -121 -309 -133 -359 -13 -58 -77 -220 -98 -248
l-21 -29 -26 31 c-30 37 -38 38 -74 9 l-28 -22 -38 42 -39 41 -1 223 c0 209
-6 277 -22 251 -4 -6 -10 -120 -13 -254 -6 -217 -9 -248 -26 -276 -24 -40 -32
-41 -62 -7 l-22 27 -30 -31 -29 -32 -52 48 c-31 28 -54 59 -58 77 -16 73 -159
498 -175 517 -9 12 -22 18 -28 14 -7 -4 11 -70 54 -197 35 -104 71 -213 79
-242 8 -29 21 -77 30 -107 36 -120 56 -235 50 -285 -8 -65 7 -85 76 -102 69
-16 250 -16 359 0 73 11 87 16 98 37 7 14 10 37 8 52 -5 25 125 455 175 581
10 26 28 69 39 96 54 133 60 249 7 145z"/>
<path d="M11170 1886 c0 -70 7 -81 46 -72 22 6 24 11 24 71 l0 65 -35 0 -35 0
0 -64z"/>
<path d="M11320 1886 c0 -70 7 -81 46 -72 24 6 25 10 22 69 -3 62 -3 62 -35
65 l-33 3 0 -65z"/>
<path d="M8655 1868 c-3 -7 -4 -38 -3 -68 3 -54 4 -55 36 -58 l32 -3 0 70 0
71 -30 0 c-17 0 -33 -6 -35 -12z"/>
<path d="M8800 1811 l0 -71 35 0 36 0 -3 68 -3 67 -32 3 -33 3 0 -70z"/>
<path d="M9631 1801 c-5 -3 -11 -20 -13 -36 l-3 -30 -108 -3 -108 -3 3 -32 3
-32 110 -5 c79 -4 110 -8 109 -17 -1 -7 -2 -40 -2 -73 l-2 -60 -110 0 -110 0
0 -30 0 -30 104 0 c71 0 107 -4 114 -12 5 -7 10 -40 10 -73 -1 -60 -1 -60 31
-63 l31 -3 0 69 c0 55 3 71 16 76 9 3 58 6 110 6 l94 0 0 30 0 30 -110 0 -110
0 0 75 0 75 110 0 110 0 0 35 0 34 -107 3 -108 3 -5 34 c-4 27 -10 35 -27 36
-12 1 -27 -1 -32 -4z"/>
<path d="M10728 1793 c-5 -7 -8 -20 -6 -30 3 -15 15 -18 76 -21 l72 -3 1 -47
c1 -26 0 -59 -1 -74 -1 -26 1 -28 39 -28 l41 0 0 -260 0 -260 -74 0 -75 0 -3
38 c-3 34 -6 37 -33 37 l-30 0 0 -70 0 -70 140 0 140 0 3 322 2 323 -27 6
c-16 3 -34 7 -40 10 -9 2 -13 25 -13 69 0 36 -3 65 -7 66 -76 6 -197 2 -205
-8z"/>
<path d="M8012 1368 l3 -363 30 0 30 0 3 363 2 362 -35 0 -35 0 2 -362z"/>
<path d="M8509 1723 c0 -5 -1 -53 -2 -108 l-2 -100 -92 -3 -93 -3 0 -29 0 -30
90 0 c65 0 90 -4 91 -12 5 -40 6 -70 7 -245 l2 -193 30 0 30 0 0 219 c0 251
-9 231 101 231 l69 0 0 30 0 29 -82 3 -83 3 -3 108 -3 107 -29 0 c-17 0 -30
-3 -31 -7z"/>
<path d="M10434 1427 c-2 -7 -3 -105 -2 -217 l3 -205 33 -3 32 -3 0 220 0 221
-30 0 c-17 0 -33 -6 -36 -13z"/>
<path d="M11250 1219 l0 -220 31 3 32 3 -1 210 c0 116 -1 213 -1 218 -1 4 -14
7 -31 7 l-30 0 0 -221z"/>
<path d="M9330 1125 l0 -125 253 2 252 3 0 30 0 30 -219 5 -219 5 1 88 1 87
-34 0 -35 0 0 -125z"/>
</g>
</svg>
